<svg xmlns="http://www.w3.org/2000/svg" viewBox="0 0 32 32" fill="none">
  <defs>
    <linearGradient id="markGrad" x1="4" y1="4" x2="28" y2="28" gradientUnits="userSpaceOnUse">
      <stop offset="0%" stop-color="#7b68ee"/>
      <stop offset="100%" stop-color="#5288c1"/>
    </linearGradient>
  </defs>
  <circle cx="16" cy="16" r="15" fill="url(#markGrad)"/>
  <path d="M16 5c-6.1 0-11 4.9-11 11 0 6.1 4.9 11 11 11 0-6.1 4.9-11 11-11-6.1 0-11-4.9-11-11z" fill="#0e1621" opacity="0.35"/>
  <path d="M16 7c-4.9 0-9 4.1-9 9 0 4.9 4.1 9 9 9 0-4.9 4.1-9 9-9-4.9 0-9-4.1-9-9z" fill="#ffffff" opacity="0.92"/>
  <circle cx="19.5" cy="12" r="1.6" fill="#17212b" opacity="0.55"/>
</svg>
